<svg width="21" height="25" viewBox="0 0 21 25" fill="none" xmlns="http://www.w3.org/2000/svg">
<g clip-path="url(#clip0_49_167)">
<path d="M0 0L4.087 3.192L8.774 0L12.379 2.568L17 0V25H0V0Z" fill="black"/>
<path d="M20 15H19C18.4477 15 18 15.4477 18 16V24C18 24.5523 18.4477 25 19 25H20C20.5523 25 21 24.5523 21 24V16C21 15.4477 20.5523 15 20 15Z" fill="black"/>
<path d="M10.957 21.682L4.228 14.707V13.087H7.42C8.32292 13.0982 9.19796 12.7744 9.876 12.178C10.6024 11.5292 11.0436 10.6201 11.104 9.648H3V8.175H10.981C10.7745 7.39856 10.3114 6.71481 9.667 6.235C9.0255 5.73474 8.23347 5.4665 7.42 5.474H3V4H14.788V5.473H11.006C11.4021 5.82558 11.7272 6.25051 11.964 6.725C12.2075 7.18464 12.3971 7.67086 12.529 8.174H14.788V9.647H12.578C12.5076 11.0075 11.9135 12.2879 10.92 13.22C9.97087 14.1028 8.716 14.5825 7.42 14.558H6.143L13 21.682H10.957Z" fill="white"/>
</g>
<defs>
<clipPath id="clip0_49_167">
<rect width="21" height="25" fill="white"/>
</clipPath>
</defs>
</svg>
