electricity bill.svg<svg width="33" height="33" viewBox="0 0 33 33" fill="none" xmlns="http://www.w3.org/2000/svg">
<g clip-path="url(#clip0_140_502)">
<path fill-rule="evenodd" clip-rule="evenodd" d="M16.437 0C13.1861 0 10.0082 0.964013 7.3051 2.77013C4.60205 4.57625 2.49528 7.14336 1.2512 10.1468C0.0071218 13.1503 -0.318386 16.4552 0.31584 19.6437C0.950065 22.8322 2.51554 25.761 4.81429 28.0597C7.11305 30.3585 10.0418 31.9239 13.2303 32.5582C16.4188 33.1924 19.7237 32.8669 22.7272 31.6228C25.7306 30.3787 28.2978 28.272 30.1039 25.5689C31.91 22.8659 32.874 19.6879 32.874 16.437C32.874 12.0776 31.1423 7.89682 28.0597 4.81429C24.9772 1.73175 20.7964 0 16.437 0V0ZM18.137 7.536C18.8717 7.53696 19.5963 7.70682 20.2548 8.03246C20.9134 8.35809 21.4882 8.83079 21.935 9.41401C22.3817 9.99723 22.6884 10.6754 22.8312 11.396C22.9741 12.1166 22.9494 12.8604 22.759 13.57C22.74 13.6428 22.6974 13.7072 22.6378 13.7531C22.5783 13.7991 22.5052 13.824 22.43 13.824C22.3996 13.8241 22.3693 13.8201 22.34 13.812C22.2965 13.8005 22.2557 13.7805 22.22 13.7532C22.1843 13.7259 22.1543 13.6918 22.1318 13.6529C22.1093 13.6139 22.0948 13.5709 22.089 13.5263C22.0832 13.4817 22.0862 13.4364 22.098 13.393C22.2842 12.6967 22.284 11.9636 22.0974 11.2674C21.9108 10.5711 21.5443 9.9362 21.0349 9.42631C20.5254 8.91642 19.8907 8.54948 19.1947 8.36233C18.4986 8.17517 17.7655 8.17436 17.069 8.36C16.9828 8.37878 16.8927 8.36365 16.8174 8.31774C16.7421 8.27183 16.6874 8.19867 16.6646 8.11347C16.6418 8.02826 16.6527 7.93755 16.6951 7.86018C16.7374 7.78281 16.808 7.72473 16.892 7.698C17.2994 7.58906 17.7193 7.53458 18.141 7.536H18.137ZM18.137 8.906C18.6617 8.90673 19.1792 9.02811 19.6495 9.26075C20.1198 9.49339 20.5303 9.83106 20.8493 10.2477C21.1682 10.6643 21.3872 11.1486 21.4891 11.6633C21.591 12.178 21.5732 12.7093 21.437 13.216C21.418 13.2888 21.3754 13.3532 21.3158 13.3991C21.2563 13.4451 21.1832 13.47 21.108 13.47C21.0776 13.4701 21.0473 13.4661 21.018 13.458C20.9746 13.4464 20.9339 13.4263 20.8982 13.399C20.8626 13.3717 20.8327 13.3376 20.8102 13.2986C20.7877 13.2597 20.7731 13.2168 20.7673 13.1722C20.7614 13.1277 20.7644 13.0824 20.776 13.039C20.8999 12.5745 20.8995 12.0855 20.7748 11.6212C20.6501 11.1568 20.4055 10.7335 20.0655 10.3935C19.7255 10.0535 19.3022 9.80894 18.8378 9.68423C18.3735 9.55953 17.8846 9.5591 17.42 9.683C17.3324 9.70647 17.239 9.69416 17.1604 9.64878C17.0818 9.60339 17.0245 9.52865 17.001 9.441C16.9775 9.35335 16.9898 9.25996 17.0352 9.18138C17.0806 9.1028 17.1554 9.04547 17.243 9.022C17.5352 8.94365 17.8365 8.90464 18.139 8.906H18.137ZM12.806 9.08C12.8509 9.07996 12.8954 9.08876 12.937 9.10592C12.9785 9.12308 13.0162 9.14825 13.048 9.18L16.922 13.054L17.478 12.498C17.4463 12.3844 17.445 12.2644 17.4743 12.1501C17.5036 12.0358 17.5625 11.9313 17.645 11.847C17.7076 11.7793 17.7832 11.725 17.8674 11.6872C17.9515 11.6494 18.0423 11.629 18.1345 11.6272C18.2267 11.6255 18.3183 11.6423 18.4038 11.6767C18.4894 11.7112 18.5671 11.7626 18.6323 11.8278C18.6975 11.8929 18.7488 11.9706 18.7833 12.0562C18.8177 12.1417 18.8346 12.2333 18.8328 12.3255C18.831 12.4177 18.8106 12.5085 18.7728 12.5926C18.7351 12.6768 18.6807 12.7524 18.613 12.815C18.5286 12.8974 18.424 12.9561 18.3098 12.9854C18.1956 13.0147 18.0756 13.0136 17.962 12.982L17.406 13.538L21.281 17.412C21.345 17.4763 21.3809 17.5633 21.3809 17.654C21.3809 17.7447 21.345 17.8317 21.281 17.896C20.3339 18.8413 19.1045 19.452 17.7791 19.6357C16.4537 19.8194 15.1045 19.5661 13.936 18.914C13.8998 18.9623 13.8611 19.0087 13.82 19.053L15.647 23.317C15.8719 23.3704 16.0721 23.4983 16.2151 23.6798C16.3581 23.8613 16.4356 24.0859 16.435 24.317V25C16.4347 25.0906 16.3986 25.1775 16.3345 25.2415C16.2705 25.3056 16.1836 25.3417 16.093 25.342H10.616C10.5252 25.342 10.4381 25.306 10.3738 25.2419C10.3095 25.1778 10.2733 25.0908 10.273 25V24.315C10.2737 24.0957 10.3447 23.8824 10.4756 23.7064C10.6064 23.5304 10.7902 23.4009 11 23.337L11.617 19.327C11.4058 19.1866 11.2283 19.001 11.0975 18.7837C10.9667 18.5664 10.8858 18.3227 10.8606 18.0703C10.8355 17.8179 10.8667 17.563 10.952 17.3242C11.0373 17.0853 11.1746 16.8683 11.354 16.689C11.4123 16.6331 11.4745 16.5813 11.54 16.534C10.8874 15.3636 10.6345 14.0122 10.8197 12.6849C11.0049 11.3577 11.618 10.1271 12.566 9.18C12.5978 9.14825 12.6355 9.12308 12.6771 9.10592C12.7186 9.08876 12.7631 9.07996 12.808 9.08H12.806ZM12.813 9.913C11.8906 10.9584 11.4015 12.3161 11.4451 13.7095C11.4888 15.103 12.062 16.4274 13.048 17.413C14.0326 18.4008 15.3574 18.9752 16.7514 19.0189C18.1454 19.0625 19.5035 18.5722 20.548 17.648L16.693 13.793C16.693 13.793 16.682 13.786 16.678 13.782C16.674 13.778 16.673 13.773 16.669 13.769L12.813 9.913ZM18.134 10.274C18.449 10.2744 18.7596 10.3472 19.0419 10.4869C19.3242 10.6265 19.5707 10.8292 19.7622 11.0792C19.9536 11.3293 20.0851 11.62 20.1462 11.929C20.2074 12.2379 20.1967 12.5568 20.115 12.861C20.0956 12.9338 20.0528 12.9981 19.9931 13.044C19.9335 13.0899 19.8603 13.1149 19.785 13.115C19.7561 13.1138 19.7276 13.1087 19.7 13.1C19.6565 13.0885 19.6157 13.0685 19.58 13.0412C19.5443 13.0139 19.5143 12.9798 19.4918 12.9409C19.4693 12.9019 19.4548 12.8589 19.449 12.8143C19.4432 12.7697 19.4462 12.7244 19.458 12.681C19.5201 12.4488 19.52 12.2043 19.4578 11.9721C19.3956 11.7399 19.2734 11.5281 19.1035 11.358C18.9337 11.188 18.722 11.0655 18.4899 11.003C18.2578 10.9405 18.0133 10.9402 17.781 11.002C17.7376 11.0136 17.6923 11.0166 17.6478 11.0107C17.6032 11.0048 17.5603 10.9902 17.5214 10.9678C17.4825 10.9453 17.4484 10.9154 17.421 10.8797C17.3937 10.8441 17.3736 10.8034 17.362 10.76C17.3504 10.7166 17.3474 10.6713 17.3533 10.6268C17.3592 10.5822 17.3738 10.5393 17.3962 10.5004C17.4187 10.4615 17.4486 10.4274 17.4843 10.4C17.5199 10.3727 17.5606 10.3526 17.604 10.341C17.7776 10.2955 17.9565 10.2733 18.136 10.275L18.134 10.274ZM11.913 17.119C11.8867 17.1353 11.8614 17.153 11.837 17.172C11.6443 17.3647 11.5361 17.626 11.5361 17.8985C11.5361 18.171 11.6443 18.4323 11.837 18.625C12.0297 18.8177 12.291 18.9259 12.5635 18.9259C12.836 18.9259 13.0973 18.8177 13.29 18.625C13.3097 18.5997 13.3281 18.5733 13.345 18.546C12.786 18.1603 12.3013 17.6769 11.914 17.119H11.913ZM13.252 19.461C13.0352 19.5583 12.8006 19.6094 12.563 19.611C12.4644 19.6099 12.3661 19.6005 12.269 19.583L11.699 23.283H14.889L13.252 19.461ZM11.3 23.971C11.2094 23.9713 11.1225 24.0074 11.0585 24.0715C10.9944 24.1355 10.9583 24.2224 10.958 24.313V24.655H15.752V24.313C15.7517 24.2224 15.7156 24.1355 15.6515 24.0715C15.5875 24.0074 15.5006 23.9713 15.41 23.971H11.3Z" fill="black"/>
</g>
<defs>
<clipPath id="clip0_140_502">
<rect width="32.874" height="32.874" fill="white"/>
</clipPath>
</defs>
</svg>
