<svg width="24" height="30" viewBox="0 0 24 30" fill="none" xmlns="http://www.w3.org/2000/svg">
<g clip-path="url(#clip0_140_508)">
<path d="M18.413 5.524C18.6722 5.52439 18.9289 5.47363 19.1685 5.37462C19.4081 5.27561 19.6257 5.13029 19.809 4.947C19.9923 4.76371 20.1376 4.54606 20.2366 4.3065C20.3356 4.06695 20.3864 3.81021 20.386 3.551C20.386 2.236 18.413 0 18.413 0C18.413 0 16.44 2.236 16.44 3.551C16.4396 3.81021 16.4904 4.06695 16.5894 4.3065C16.6884 4.54606 16.8337 4.76371 17.017 4.947C17.2003 5.13029 17.4179 5.27561 17.6575 5.37462C17.8971 5.47363 18.1538 5.52439 18.413 5.524ZM11.837 5.524C12.0962 5.52439 12.3529 5.47363 12.5925 5.37462C12.8321 5.27561 13.0497 5.13029 13.233 4.947C13.4163 4.76371 13.5616 4.54606 13.6606 4.3065C13.7596 4.06695 13.8104 3.81021 13.81 3.551C13.81 2.236 11.837 0 11.837 0C11.837 0 9.864 2.236 9.864 3.551C9.86361 3.81021 9.91437 4.06695 10.0134 4.3065C10.1124 4.54606 10.2577 4.76371 10.441 4.947C10.6243 5.13029 10.8419 5.27561 11.0815 5.37462C11.3211 5.47363 11.5778 5.52439 11.837 5.524ZM5.261 5.524C5.52021 5.52439 5.77695 5.47363 6.0165 5.37462C6.25606 5.27561 6.47371 5.13029 6.657 4.947C6.84029 4.76371 6.98561 4.54606 7.08462 4.3065C7.18363 4.06695 7.2344 3.81021 7.234 3.551C7.234 2.236 5.261 0 5.261 0C5.261 0 3.288 2.236 3.288 3.551C3.28761 3.81021 3.33837 4.06695 3.43738 4.3065C3.53639 4.54606 3.68171 4.76371 3.865 4.947C4.04829 5.13029 4.26594 5.27561 4.5055 5.37462C4.74505 5.47363 5.00179 5.52439 5.261 5.524ZM20.939 9.483C20.8057 9.09404 20.5538 8.75668 20.2187 8.51845C19.8836 8.28021 19.4822 8.15309 19.071 8.155H4.6C4.1893 8.15503 3.78879 8.2829 3.45406 8.52087C3.11932 8.75884 2.86696 9.09511 2.732 9.483L0 17.361V27.883C0.000527256 28.2318 0.139177 28.5662 0.385616 28.813C0.632055 29.0598 0.966219 29.1989 1.315 29.2H2.63C2.97844 29.1989 3.3123 29.0601 3.55868 28.8137C3.80506 28.5673 3.94394 28.2334 3.945 27.885V26.568H19.729V27.883C19.7295 28.2318 19.8682 28.5662 20.1146 28.813C20.3611 29.0598 20.6952 29.1989 21.044 29.2H22.359C22.7074 29.1989 23.0413 29.0601 23.2877 28.8137C23.5341 28.5673 23.6729 28.2334 23.674 27.885V17.361L20.938 9.483H20.939ZM4.6 22.622C4.20978 22.622 3.82832 22.5063 3.50386 22.2895C3.1794 22.0727 2.92652 21.7646 2.77719 21.404C2.62785 21.0435 2.58878 20.6468 2.66491 20.2641C2.74104 19.8814 2.92895 19.5298 3.20488 19.2539C3.48081 18.9779 3.83236 18.79 4.21509 18.7139C4.59781 18.6378 4.99452 18.6769 5.35503 18.8262C5.71555 18.9755 6.02369 19.2284 6.24049 19.5529C6.45729 19.8773 6.573 20.2588 6.573 20.649C6.57339 20.9082 6.52263 21.1649 6.42362 21.4045C6.32461 21.6441 6.17929 21.8617 5.996 22.045C5.81271 22.2283 5.59506 22.3736 5.3555 22.4726C5.11595 22.5716 4.85921 22.6224 4.6 22.622ZM19.068 22.622C18.6778 22.622 18.2963 22.5063 17.9719 22.2895C17.6474 22.0727 17.3945 21.7646 17.2452 21.404C17.0959 21.0435 17.0568 20.6468 17.1329 20.2641C17.209 19.8814 17.3969 19.5298 17.6729 19.2539C17.9488 18.9779 18.3004 18.79 18.6831 18.7139C19.0658 18.6378 19.4625 18.6769 19.823 18.8262C20.1836 18.9755 20.4917 19.2284 20.7085 19.5529C20.9253 19.8773 21.041 20.2588 21.041 20.649C21.0414 20.908 20.9907 21.1644 20.8919 21.4038C20.7931 21.6432 20.648 21.8607 20.4651 22.0439C20.2821 22.2272 20.0648 22.3726 19.8256 22.4718C19.5864 22.5709 19.33 22.622 19.071 22.622H19.068ZM2.63 16.046L4.6 10.127H19.071L21.044 16.046H2.63Z" fill="black"/>
</g>
<defs>
<clipPath id="clip0_140_508">
<rect width="23.674" height="29.198" fill="white"/>
</clipPath>
</defs>
</svg>
