<svg width="50" height="17" viewBox="0 0 50 17" fill="none" xmlns="http://www.w3.org/2000/svg">
<g clip-path="url(#clip0_133_45)">
<path fill-rule="evenodd" clip-rule="evenodd" d="M39.0434 15.3378H36.4755L40.0438 1.12207H42.6117L39.0434 15.3378ZM17.7038 14.4472C17.5634 15.0087 17.0954 15.4022 16.569 15.4022H3.33124C2.96851 15.4022 2.69954 15.2666 2.52393 14.9957C2.34853 14.7244 2.30761 14.3889 2.41289 13.989L5.64192 1.16086H8.21004L5.32607 12.621H15.5982L18.4819 1.16086H21.0501L17.704 14.4472H17.7038ZM37.7097 1.56735C37.5343 1.29628 37.2592 1.16086 36.8849 1.16086H22.7755L22.0795 3.94843H34.9137L34.165 6.92336H23.8989V6.91678H21.331L19.2016 15.4024H21.7696L23.1969 9.71093H34.7383C35.1011 9.71093 35.4403 9.57529 35.7562 9.30444C36.072 9.03337 36.2828 8.69788 36.3821 8.29775L37.8094 2.60647C37.9205 2.18069 37.8855 1.83863 37.7099 1.56756L37.7097 1.56735Z" fill="black"/>
<path fill-rule="evenodd" clip-rule="evenodd" d="M47.0466 1.14746L50.2933 8.27143L43.4668 15.3954L44.2787 12.1639L48.0121 8.27143L46.236 4.37417L47.0466 1.14746Z" fill="#0E8635"/>
<path fill-rule="evenodd" clip-rule="evenodd" d="M44.7657 1.14746L48.0122 8.27143L41.1797 15.3954L44.7657 1.14746Z" fill="#E97208"/>
</g>
<defs>
<clipPath id="clip0_133_45">
<rect width="50" height="17" fill="white"/>
</clipPath>
</defs>
</svg>
